<?xml version="1.0" encoding="UTF-8"?>
<svg xmlns="http://www.w3.org/2000/svg" viewBox="0 0 514 513" width="512" height="512">
  <defs>
    <linearGradient id="google-grad" x1="0%" y1="0%" x2="0%" y2="100%">
      <stop offset="0%" stop-color="#4285f4"/>
      <stop offset="33%" stop-color="#ea4335"/>
      <stop offset="66%" stop-color="#fbbc04"/>
      <stop offset="100%" stop-color="#34a853"/>
    </linearGradient>
  </defs>
  <path fill="url(#google-grad)" fill-rule="nonzero" d="M120.06,489.41c15.49 -21.5,23.23 -40.69,26.29 -61.04,1.91 -14.18,2.1 -29.3,1.34 -46.50l8.47,0.44,0 -0.05c5.73,0.40,10.99,0.41,16.85,1.12l0.56,0.02c0.6,17.81,0.41,33.17 -1.74,48.79 -3.98,24.37 -12.76,47.58 -31.16,72.40l-20.66 -15.39zm-45.5 -120.27l57.4,57.4 -4.75,23.08 -74.47 -74.31c-10.22,3.9 -19.92,9.48 -29.80,16.64l-15.59 -20.22c48.02 -36.43,99.65 -33.88,150.87 -30.84,6,0.30,12,0.32,16.42,0.96,20.46,1.1,40.57,1.16,60.19 -2.14l-51.41 -51.18,5 -23.15,69.08,68.71c13.82 -4.52,27.37 -11.44,39.88 -22.23l-96.59 -96.97c-17.47,18.79 -25.81,39.52 -28.77,61.67 -2.49,15.31 -2.19,31.38 -1.71,48.49l-9.67 -0.31c-0.34 -0.06 -1.26 -0.09 -1.76 -0.09 -4.82 -0.24 -9.23 -0.5 -13.92 -0.91 -0.89 -17.55 -0.49 -34.58,2.0 -51.04,4.0 -27.80,14.52 -53.5,37.30 -77.03,24.33 -25.45,50.19 -38.68,76.67 -45.22,21.48 -5.08,42.97 -6.38,64.24 -6.15,0.30,5.16,0.39,10.04,0.85,15.48,0.24,3.29,0.48,6.48,0.40,9.90 -16.60 -0.4 -32.63,0.02 -48.47,2.88l52.56,52.28 -5.01,23.03 -70.13 -70.27c-13.80,5.0 -27.71,12.03 -41.15,22.79l96.73,96.68c18.35 -19.50,26.24 -40.19,29.97 -63.19,3.63 -24.01,1.9 -49.29 -0.04 -76.14 -2.01 -30.38 -3.53 -55.32,0.2 -78.8,3.78 -24.42,12.55 -47.56,31.16 -72.06l20.94,15.5c-15.40,21.4 -23.29,40.44 -26.35,60.66 -3.53,21.14 -2.12,44.77,0.02,73.46,1.96,28.58,4.14,55.92 -0.16,82.05 -4.35,27.34 -14.75,53.26 -37.18,77.54 -24.01,25.45 -50.03,38.97 -77.19,45.56 -26.03,6.71 -52.65,6.54 -79.53,5.60 -6.39 -0.27 -11.3 -0.25 -16.66 -0.86 -27.79 -1.31 -56.29 -3.11 -82.93,2.98zm362.70 -226.1l-55.44 -55.35,4.95 -23.21,72.70,72.45c10.58 -3.76,21.54 -9.64,31.86 -17.39l15.83,20.65c-38.96,29.25 -80.04,33.10 -121.50,32.09 -0.35 -5.60 -0.96 -10.87 -1.21 -16.76 -0.22 -3.04 -0.43 -5.88 -0.67 -8.85,18.39,0.52,36.60,0.04,53.91 -3.45z"/>
</svg>
